<svg width="63" height="63" viewBox="0 0 63 63" fill="none" xmlns="http://www.w3.org/2000/svg">
<circle cx="31.5" cy="31.5" r="31.5" fill="#1D1E21"/>
<path d="M22.795 46C20.1969 46 18.2338 45.0805 16.9072 43.2407C15.6357 41.3469 15 38.7225 15 35.3683C15 31.5265 15.9674 28.1449 17.9022 25.2234C19.8376 22.3012 22.795 19.8938 26.7755 18L29.4295 23.194C26.9417 24.4387 25.0621 25.8725 23.7906 27.4958C22.5743 29.0645 21.9655 31.0665 21.9655 33.5012C22.1323 33.4471 22.4082 33.4204 22.795 33.4204C24.5643 33.4204 26.0571 33.9613 27.2727 35.0431C28.5448 36.0715 29.1806 37.5058 29.1806 39.3449C29.1806 41.4004 28.5724 43.0244 27.3561 44.2144C26.1398 45.4044 24.6194 46 22.795 46ZM42.3655 46C39.7674 46 37.8044 45.0805 36.4777 43.2407C35.2063 41.3469 34.5705 38.7225 34.5705 35.3683C34.5705 31.5265 35.5379 28.1449 37.4734 25.2234C39.4082 22.3012 42.3661 19.8938 46.3461 18L49 23.194C46.5122 24.4387 44.6326 25.8725 43.3611 27.4958C42.1448 29.0645 41.5367 31.0665 41.5367 33.5012C41.7022 33.4471 41.9793 33.4204 42.3655 33.4204C44.1348 33.4204 45.6276 33.9613 46.8439 35.0431C48.1154 36.0715 48.7511 37.5058 48.7511 39.3449C48.7511 41.4004 48.1429 43.0244 46.9266 44.2144C45.7103 45.4044 44.19 46 42.3655 46Z" fill="#EBEFFF"/>
</svg>
