<svg width="130" height="29" viewBox="0 0 130 29" fill="none" xmlns="http://www.w3.org/2000/svg">
<path d="M14.6438 3.65157H7.30328C6.44626 3.65157 5.62651 3.80061 4.88128 4.06144C2.79462 4.80668 1.15511 6.44619 0.409878 8.53284C0.149047 9.31533 0 10.0978 0 10.9548V28.0207H4.88128V10.9548C4.88128 9.61343 5.96186 8.53284 7.30328 8.53284H14.6438C15.9852 8.53284 17.0658 9.61343 17.0658 10.9548C17.0658 12.2963 15.9852 13.4141 14.6438 13.4141H13.4142C11.5884 13.4141 9.94886 14.0848 8.6447 15.1654C7.6759 15.9852 6.96793 17.0285 6.52079 18.2209V18.2581C6.25996 19.0034 6.11091 19.8231 6.11091 20.6801V24.3318H10.9922V20.6801C10.9922 19.3387 12.0728 18.2581 13.4142 18.2581H14.6438C16.4696 18.2581 18.1092 17.5874 19.4133 16.4696C20.3821 15.6498 21.1273 14.5692 21.5372 13.3769C21.7981 12.5944 21.9471 11.7746 21.9471 10.9176C21.9471 10.0606 21.7981 9.24081 21.5372 8.49558C20.5312 5.70096 17.8111 3.65157 14.6438 3.65157Z" fill="#4D459C"/>
<path d="M44.4905 3.65157C38.7522 3.65157 34.1317 8.30927 34.1317 14.0103C34.1317 19.7486 38.7894 24.369 44.4905 24.369C50.2287 24.369 54.8492 19.7486 54.8492 14.0103C54.8492 8.30927 50.2287 3.65157 44.4905 3.65157ZM44.4905 19.4878C41.4723 19.4878 39.013 17.0285 39.013 14.0103C39.013 10.9921 41.4723 8.53284 44.4905 8.53284C47.5086 8.53284 49.9679 10.9921 49.9679 14.0103C49.9679 17.0285 47.5459 19.4878 44.4905 19.4878Z" fill="#4D459C"/>
<path d="M23.1766 14.0103V24.369H28.0579V14.0103C28.0579 10.9921 30.5172 8.53284 33.5354 8.53284V3.65157C31.5232 3.65157 29.6229 4.21049 28.0579 5.21655C25.1142 7.04237 23.1766 10.3214 23.1766 14.0103Z" fill="#4D459C"/>
<path d="M76.2003 4.06144C75.4551 3.80061 74.5981 3.65157 73.7783 3.65157C72.9213 3.65157 72.1015 3.80061 71.3563 4.06144C70.462 4.3968 69.605 4.8812 68.9343 5.51465C68.2263 4.8812 67.4066 4.3968 66.5123 4.06144C65.767 3.80061 64.9473 3.65157 64.0903 3.65157C63.2333 3.65157 62.4135 3.80061 61.6683 4.06144C58.8364 5.06751 56.787 7.78761 56.787 10.9548V24.369H61.6683V10.9548C61.6683 9.61343 62.7489 8.53284 64.0903 8.53284C65.4317 8.53284 66.5123 9.61343 66.5123 10.9548V24.369H71.3936V10.9548C71.3936 9.61343 72.4741 8.53284 73.8156 8.53284C75.157 8.53284 76.2376 9.61343 76.2376 10.9548V24.369H81.1188V10.9548C81.0816 7.78761 79.0322 5.06751 76.2003 4.06144Z" fill="#4D459C"/>
<path d="M93.2661 3.65157C87.5278 3.65157 82.9073 8.30927 82.9073 14.0103C82.9073 19.7486 87.5651 24.369 93.2661 24.369C95.539 24.369 97.663 23.6238 99.377 22.3942V24.369H103.662V14.0103C103.662 13.824 103.662 13.6004 103.662 13.4141C103.289 7.97392 98.7808 3.65157 93.2661 3.65157ZM93.2661 19.4878C90.2479 19.4878 87.7886 17.0285 87.7886 14.0103C87.7886 10.9921 90.2479 8.53284 93.2661 8.53284C96.2843 8.53284 98.7435 10.9921 98.7435 14.0103C98.7435 17.0658 96.2843 19.4878 93.2661 19.4878Z" fill="#4D459C"/>
<path d="M106.047 14.0103V24.369H110.928V14.0103C110.928 10.9921 113.387 8.53284 116.406 8.53284V3.65157C114.393 3.65157 112.493 4.21049 110.928 5.21655C108.022 7.04237 106.047 10.3214 106.047 14.0103Z" fill="#4D459C"/>
<path d="M125.572 19.4878C124.23 19.4878 123.15 18.4073 123.15 17.0658V8.53292H128.031V3.65164H123.15V0H118.268V17.0658C118.268 17.9229 118.417 18.7426 118.678 19.4878C119.424 21.5745 121.063 23.214 123.15 23.9592C123.895 24.2201 124.752 24.3691 125.572 24.3691H129.223V19.4878H125.572Z" fill="#4D459C"/>
</svg>
